<?xml version="1.0" encoding="utf-8"?>
<!-- Generator: Adobe Illustrator 23.0.3, SVG Export Plug-In . SVG Version: 6.00 Build 0)  -->
<svg version="1.1" id="Layer_1" xmlns="http://www.w3.org/2000/svg" xmlns:xlink="http://www.w3.org/1999/xlink" x="0px" y="0px"
	 viewBox="0 0 432 432" style="enable-background:new 0 0 432 432;" xml:space="preserve">
<style type="text/css">
	.st0{fill:#1FA2FF;}
	.st1{fill:#C02428;}
	.st2{fill:#439B73;}
	.st3{fill:#FF8F00;}
	.st4{fill-rule:evenodd;clip-rule:evenodd;fill:#439B73;}
	.st5{fill-rule:evenodd;clip-rule:evenodd;fill:#C02428;}
	.st6{fill-rule:evenodd;clip-rule:evenodd;fill:#1FA2FF;}
	.st7{fill-rule:evenodd;clip-rule:evenodd;fill:#FF8F00;}
</style>
<g>
	<g id="Artboard" transform="translate(-3768.000000, -6532.000000)">
		<g id="Group-68" transform="translate(3768.000000, 6532.000000)">
			<g id="Group-54">
				<path id="Stroke-18" class="st0" d="M305.8,165.2h-70.3c-10.8,0-19.5,8.7-19.5,19.5v121.1c0,2.2,1.7,3.9,3.9,3.9
					s3.9-1.7,3.9-3.9V184.8c0-6.5,5.2-11.7,11.7-11.7h70.3c2.2,0,3.9-1.7,3.9-3.9S308,165.2,305.8,165.2z"/>
				<path id="Stroke-21" class="st1" d="M110.5,157.4h109.4c6.5,0,11.7,5.2,11.7,11.7v136.7c0,2.2,1.7,3.9,3.9,3.9s3.9-1.7,3.9-3.9
					V169.1c0-10.8-8.7-19.5-19.5-19.5H110.5c-2.2,0-3.9,1.7-3.9,3.9C106.6,155.7,108.4,157.4,110.5,157.4z"/>
				<path id="Stroke-22" class="st2" d="M208.2,305.8V126.2c0-2.2-1.7-3.9-3.9-3.9s-3.9,1.7-3.9,3.9v179.7c0,2.2,1.7,3.9,3.9,3.9
					S208.2,308,208.2,305.8z"/>
				<path id="Stroke-24" class="st0" d="M192.6,305.8v-125c0-2.2-1.7-3.9-3.9-3.9s-3.9,1.7-3.9,3.9v125c0,2.2,1.7,3.9,3.9,3.9
					S192.6,308,192.6,305.8z"/>
				<path id="Stroke-27" class="st3" d="M255.1,305.8v-93.7c0-2.2-1.7-3.9-3.9-3.9s-3.9,1.7-3.9,3.9v93.7c0,2.2,1.7,3.9,3.9,3.9
					S255.1,308,255.1,305.8z"/>
				<circle id="Oval" class="st4" cx="204.3" cy="110.5" r="3.9"/>
				<circle id="Oval-Copy-72" class="st5" cx="94.9" cy="153.5" r="3.9"/>
				<circle id="Oval-Copy-73" class="st6" cx="321.5" cy="169.1" r="3.9"/>
				<circle id="Oval-Copy-75" class="st7" cx="251.2" cy="196.5" r="3.9"/>
				<circle id="Oval-Copy-76" class="st6" cx="188.7" cy="165.2" r="3.9"/>
				<circle id="Oval-Copy-77" class="st6" cx="219.9" cy="137.9" r="3.9"/>
				<circle id="Oval-Copy-78" class="st5" cx="235.5" cy="137.9" r="3.9"/>
				<circle class="st5" cx="173" cy="321.5" r="3.9"/>
				<circle id="Oval-Copy-79" class="st6" cx="188.7" cy="321.5" r="3.9"/>
				<circle id="Oval-Copy-80" class="st4" cx="204.3" cy="321.5" r="3.9"/>
				<circle id="Oval-Copy-81" class="st6" cx="219.9" cy="321.5" r="3.9"/>
				<circle id="Oval-Copy-82" class="st5" cx="235.5" cy="321.5" r="3.9"/>
				<circle id="Oval-Copy-83" class="st7" cx="251.2" cy="321.5" r="3.9"/>
				<circle id="Oval-Copy-84" class="st6" cx="266.8" cy="321.5" r="3.9"/>
				<circle id="Oval-Copy-74" class="st6" cx="337.1" cy="169.1" r="3.9"/>
			</g>
		</g>
	</g>
</g>
</svg>
