<svg xmlns="http://www.w3.org/2000/svg" version="1.1" xmlns:xlink="http://www.w3.org/1999/xlink" xmlns:svgjs="http://svgjs.com/svgjs" width="1441" height="558" preserveAspectRatio="none" viewBox="0 0 1441 558"><g mask="url(&quot;#SvgjsMask1016&quot;)" fill="none"><path d="M-112.36 387.85L-112.36 387.85" stroke="#132e65" stroke-width="1.5"></path><path d="M-112.36 387.85L-89.17 535.6" stroke="#132e65" stroke-width="1.5"></path><path d="M-112.36 387.85L46.86 383.48" stroke="#132e65" stroke-width="1.5"></path><path d="M-89.17 535.6L-89.17 535.6" stroke="#132e65" stroke-width="1.5"></path><path d="M-89.17 535.6L-90.16 644.53" stroke="#132e65" stroke-width="1.5"></path><path d="M-89.17 535.6L53.81 496.43" stroke="#132e65" stroke-width="1.5"></path><path d="M-89.17 535.6L46.86 383.48" stroke="#132e65" stroke-width="1.5"></path><path d="M-89.17 535.6L98.2 659.59" stroke="#132e65" stroke-width="1.5"></path><path d="M-89.17 535.6L225.75 641.07" stroke="#132e65" stroke-width="1.5"></path><path d="M-90.16 644.53L-90.16 644.53" stroke="#132e65" stroke-width="1.5"></path><path d="M-90.16 644.53L98.2 659.59" stroke="#132e65" stroke-width="1.5"></path><path d="M-90.16 644.53L53.81 496.43" stroke="#132e65" stroke-width="1.5"></path><path d="M-90.16 644.53L-112.36 387.85" stroke="#132e65" stroke-width="1.5"></path><path d="M-90.16 644.53L46.86 383.48" stroke="#132e65" stroke-width="1.5"></path><path d="M46.86 383.48L46.86 383.48" stroke="#132e65" stroke-width="1.5"></path><path d="M46.86 383.48L53.81 496.43" stroke="#132e65" stroke-width="1.5"></path><path d="M46.86 383.48L212.19 353.46" stroke="#132e65" stroke-width="1.5"></path><path d="M46.86 383.48L253.56 521.95" stroke="#132e65" stroke-width="1.5"></path><path d="M46.86 383.48L98.2 659.59" stroke="#132e65" stroke-width="1.5"></path><path d="M53.81 496.43L53.81 496.43" stroke="#132e65" stroke-width="1.5"></path><path d="M53.81 496.43L98.2 659.59" stroke="#132e65" stroke-width="1.5"></path><path d="M98.2 659.59L98.2 659.59" stroke="#132e65" stroke-width="1.5"></path><path d="M98.2 659.59L225.75 641.07" stroke="#132e65" stroke-width="1.5"></path><path d="M98.2 659.59L253.56 521.95" stroke="#132e65" stroke-width="1.5"></path><path d="M212.19 353.46L212.19 353.46" stroke="#132e65" stroke-width="1.5"></path><path d="M212.19 353.46L253.56 521.95" stroke="#132e65" stroke-width="1.5"></path><path d="M212.19 353.46L405.6 368.5" stroke="#132e65" stroke-width="1.5"></path><path d="M253.56 521.95L253.56 521.95" stroke="#132e65" stroke-width="1.5"></path><path d="M253.56 521.95L372.17 549.64" stroke="#132e65" stroke-width="1.5"></path><path d="M225.75 641.07L225.75 641.07" stroke="#132e65" stroke-width="1.5"></path><path d="M225.75 641.07L253.56 521.95" stroke="#132e65" stroke-width="1.5"></path><path d="M225.75 641.07L377.09 661.99" stroke="#132e65" stroke-width="1.5"></path><path d="M225.75 641.07L372.17 549.64" stroke="#132e65" stroke-width="1.5"></path><path d="M405.6 368.5L405.6 368.5" stroke="#132e65" stroke-width="1.5"></path><path d="M405.6 368.5L548.28 383.65" stroke="#132e65" stroke-width="1.5"></path><path d="M405.6 368.5L372.17 549.64" stroke="#132e65" stroke-width="1.5"></path><path d="M372.17 549.64L372.17 549.64" stroke="#132e65" stroke-width="1.5"></path><path d="M372.17 549.64L377.09 661.99" stroke="#132e65" stroke-width="1.5"></path><path d="M372.17 549.64L504.3 538.33" stroke="#132e65" stroke-width="1.5"></path><path d="M372.17 549.64L502.5 709.55" stroke="#132e65" stroke-width="1.5"></path><path d="M377.09 661.99L377.09 661.99" stroke="#132e65" stroke-width="1.5"></path><path d="M377.09 661.99L502.5 709.55" stroke="#132e65" stroke-width="1.5"></path><path d="M548.28 383.65L548.28 383.65" stroke="#132e65" stroke-width="1.5"></path><path d="M548.28 383.65L698.66 391.85" stroke="#132e65" stroke-width="1.5"></path><path d="M548.28 383.65L504.3 538.33" stroke="#132e65" stroke-width="1.5"></path><path d="M548.28 383.65L685.64 232.99" stroke="#132e65" stroke-width="1.5"></path><path d="M548.28 383.65L675.12 544.61" stroke="#132e65" stroke-width="1.5"></path><path d="M504.3 538.33L504.3 538.33" stroke="#132e65" stroke-width="1.5"></path><path d="M504.3 538.33L675.12 544.61" stroke="#132e65" stroke-width="1.5"></path><path d="M504.3 538.33L502.5 709.55" stroke="#132e65" stroke-width="1.5"></path><path d="M504.3 538.33L377.09 661.99" stroke="#132e65" stroke-width="1.5"></path><path d="M502.5 709.55L502.5 709.55" stroke="#132e65" stroke-width="1.5"></path><path d="M502.5 709.55L675.12 544.61" stroke="#132e65" stroke-width="1.5"></path><path d="M685.64 232.99L685.64 232.99" stroke="#132e65" stroke-width="1.5"></path><path d="M685.64 232.99L832.31 218.19" stroke="#132e65" stroke-width="1.5"></path><path d="M685.64 232.99L698.66 391.85" stroke="#132e65" stroke-width="1.5"></path><path d="M685.64 232.99L806.71 408.19" stroke="#132e65" stroke-width="1.5"></path><path d="M698.66 391.85L698.66 391.85" stroke="#132e65" stroke-width="1.5"></path><path d="M698.66 391.85L806.71 408.19" stroke="#132e65" stroke-width="1.5"></path><path d="M675.12 544.61L675.12 544.61" stroke="#132e65" stroke-width="1.5"></path><path d="M675.12 544.61L698.66 391.85" stroke="#132e65" stroke-width="1.5"></path><path d="M675.12 544.61L836.21 535.86" stroke="#132e65" stroke-width="1.5"></path><path d="M832.31 218.19L832.31 218.19" stroke="#132e65" stroke-width="1.5"></path><path d="M832.31 218.19L941.29 209.53" stroke="#132e65" stroke-width="1.5"></path><path d="M806.71 408.19L806.71 408.19" stroke="#132e65" stroke-width="1.5"></path><path d="M836.21 535.86L836.21 535.86" stroke="#132e65" stroke-width="1.5"></path><path d="M836.21 535.86L806.71 408.19" stroke="#132e65" stroke-width="1.5"></path><path d="M836.21 535.86L991.28 491.58" stroke="#132e65" stroke-width="1.5"></path><path d="M836.21 535.86L698.66 391.85" stroke="#132e65" stroke-width="1.5"></path><path d="M836.21 535.86L988.57 693.02" stroke="#132e65" stroke-width="1.5"></path><path d="M939.48 -54.87L939.48 -54.87" stroke="#132e65" stroke-width="1.5"></path><path d="M939.48 -54.87L980.58 93.2" stroke="#132e65" stroke-width="1.5"></path><path d="M980.58 93.2L980.58 93.2" stroke="#132e65" stroke-width="1.5"></path><path d="M980.58 93.2L941.29 209.53" stroke="#132e65" stroke-width="1.5"></path><path d="M980.58 93.2L1113.73 80.14" stroke="#132e65" stroke-width="1.5"></path><path d="M980.58 93.2L832.31 218.19" stroke="#132e65" stroke-width="1.5"></path><path d="M980.58 93.2L1138.59 216.07" stroke="#132e65" stroke-width="1.5"></path><path d="M980.58 93.2L1151.42 -110.48" stroke="#132e65" stroke-width="1.5"></path><path d="M941.29 209.53L941.29 209.53" stroke="#132e65" stroke-width="1.5"></path><path d="M941.29 209.53L1138.59 216.07" stroke="#132e65" stroke-width="1.5"></path><path d="M941.29 209.53L1113.73 80.14" stroke="#132e65" stroke-width="1.5"></path><path d="M941.29 209.53L806.71 408.19" stroke="#132e65" stroke-width="1.5"></path><path d="M991.28 491.58L991.28 491.58" stroke="#132e65" stroke-width="1.5"></path><path d="M991.28 491.58L1146.95 535.43" stroke="#132e65" stroke-width="1.5"></path><path d="M991.28 491.58L1154.3 378.78" stroke="#132e65" stroke-width="1.5"></path><path d="M991.28 491.58L988.57 693.02" stroke="#132e65" stroke-width="1.5"></path><path d="M991.28 491.58L806.71 408.19" stroke="#132e65" stroke-width="1.5"></path><path d="M988.57 693.02L988.57 693.02" stroke="#132e65" stroke-width="1.5"></path><path d="M988.57 693.02L1129.51 709.45" stroke="#132e65" stroke-width="1.5"></path><path d="M988.57 693.02L1146.95 535.43" stroke="#132e65" stroke-width="1.5"></path><path d="M1151.42 -110.48L1151.42 -110.48" stroke="#132e65" stroke-width="1.5"></path><path d="M1151.42 -110.48L1258.36 -104.36" stroke="#132e65" stroke-width="1.5"></path><path d="M1151.42 -110.48L1246.85 41.1" stroke="#132e65" stroke-width="1.5"></path><path d="M1151.42 -110.48L1113.73 80.14" stroke="#132e65" stroke-width="1.5"></path><path d="M1151.42 -110.48L939.48 -54.87" stroke="#132e65" stroke-width="1.5"></path><path d="M1113.73 80.14L1113.73 80.14" stroke="#132e65" stroke-width="1.5"></path><path d="M1113.73 80.14L1138.59 216.07" stroke="#132e65" stroke-width="1.5"></path><path d="M1113.73 80.14L1246.85 41.1" stroke="#132e65" stroke-width="1.5"></path><path d="M1138.59 216.07L1138.59 216.07" stroke="#132e65" stroke-width="1.5"></path><path d="M1138.59 216.07L1154.3 378.78" stroke="#132e65" stroke-width="1.5"></path><path d="M1138.59 216.07L1311.89 241.61" stroke="#132e65" stroke-width="1.5"></path><path d="M1154.3 378.78L1154.3 378.78" stroke="#132e65" stroke-width="1.5"></path><path d="M1154.3 378.78L1257.19 407.99" stroke="#132e65" stroke-width="1.5"></path><path d="M1154.3 378.78L1146.95 535.43" stroke="#132e65" stroke-width="1.5"></path><path d="M1146.95 535.43L1146.95 535.43" stroke="#132e65" stroke-width="1.5"></path><path d="M1146.95 535.43L1309.14 525.23" stroke="#132e65" stroke-width="1.5"></path><path d="M1129.51 709.45L1129.51 709.45" stroke="#132e65" stroke-width="1.5"></path><path d="M1129.51 709.45L1272.1 693.29" stroke="#132e65" stroke-width="1.5"></path><path d="M1129.51 709.45L1146.95 535.43" stroke="#132e65" stroke-width="1.5"></path><path d="M1129.51 709.45L1309.14 525.23" stroke="#132e65" stroke-width="1.5"></path><path d="M1129.51 709.45L991.28 491.58" stroke="#132e65" stroke-width="1.5"></path><path d="M1129.51 709.45L1426.59 675.39" stroke="#132e65" stroke-width="1.5"></path><path d="M1258.36 -104.36L1258.36 -104.36" stroke="#132e65" stroke-width="1.5"></path><path d="M1246.85 41.1L1246.85 41.1" stroke="#132e65" stroke-width="1.5"></path><path d="M1311.89 241.61L1311.89 241.61" stroke="#132e65" stroke-width="1.5"></path><path d="M1311.89 241.61L1431.56 213.82" stroke="#132e65" stroke-width="1.5"></path><path d="M1311.89 241.61L1409.05 354.5" stroke="#132e65" stroke-width="1.5"></path><path d="M1311.89 241.61L1257.19 407.99" stroke="#132e65" stroke-width="1.5"></path><path d="M1257.19 407.99L1257.19 407.99" stroke="#132e65" stroke-width="1.5"></path><path d="M1257.19 407.99L1309.14 525.23" stroke="#132e65" stroke-width="1.5"></path><path d="M1257.19 407.99L1409.05 354.5" stroke="#132e65" stroke-width="1.5"></path><path d="M1257.19 407.99L1146.95 535.43" stroke="#132e65" stroke-width="1.5"></path><path d="M1309.14 525.23L1309.14 525.23" stroke="#132e65" stroke-width="1.5"></path><path d="M1309.14 525.23L1401.83 512.34" stroke="#132e65" stroke-width="1.5"></path><path d="M1309.14 525.23L1272.1 693.29" stroke="#132e65" stroke-width="1.5"></path><path d="M1272.1 693.29L1272.1 693.29" stroke="#132e65" stroke-width="1.5"></path><path d="M1272.1 693.29L1426.59 675.39" stroke="#132e65" stroke-width="1.5"></path><path d="M1426.53 -95.96L1426.53 -95.96" stroke="#132e65" stroke-width="1.5"></path><path d="M1426.53 -95.96L1425.97 40.33" stroke="#132e65" stroke-width="1.5"></path><path d="M1426.53 -95.96L1258.36 -104.36" stroke="#132e65" stroke-width="1.5"></path><path d="M1425.97 40.33L1425.97 40.33" stroke="#132e65" stroke-width="1.5"></path><path d="M1425.97 40.33L1553.33 85.91" stroke="#132e65" stroke-width="1.5"></path><path d="M1431.56 213.82L1431.56 213.82" stroke="#132e65" stroke-width="1.5"></path><path d="M1431.56 213.82L1409.05 354.5" stroke="#132e65" stroke-width="1.5"></path><path d="M1431.56 213.82L1425.97 40.33" stroke="#132e65" stroke-width="1.5"></path><path d="M1431.56 213.82L1553.33 85.91" stroke="#132e65" stroke-width="1.5"></path><path d="M1409.05 354.5L1409.05 354.5" stroke="#132e65" stroke-width="1.5"></path><path d="M1409.05 354.5L1401.83 512.34" stroke="#132e65" stroke-width="1.5"></path><path d="M1401.83 512.34L1401.83 512.34" stroke="#132e65" stroke-width="1.5"></path><path d="M1426.59 675.39L1426.59 675.39" stroke="#132e65" stroke-width="1.5"></path><path d="M1426.59 675.39L1561.44 677.38" stroke="#132e65" stroke-width="1.5"></path><path d="M1609.65 -110.99L1609.65 -110.99" stroke="#132e65" stroke-width="1.5"></path><path d="M1609.65 -110.99L1426.53 -95.96" stroke="#132e65" stroke-width="1.5"></path><path d="M1609.65 -110.99L1553.33 85.91" stroke="#132e65" stroke-width="1.5"></path><path d="M1553.33 85.91L1553.33 85.91" stroke="#132e65" stroke-width="1.5"></path><path d="M1553.33 85.91L1426.53 -95.96" stroke="#132e65" stroke-width="1.5"></path><path d="M1553.33 85.91L1598.33 354.29" stroke="#132e65" stroke-width="1.5"></path><path d="M1553.33 85.91L1311.89 241.61" stroke="#132e65" stroke-width="1.5"></path><path d="M1598.33 354.29L1598.33 354.29" stroke="#132e65" stroke-width="1.5"></path><path d="M1598.33 354.29L1593.43 512.47" stroke="#132e65" stroke-width="1.5"></path><path d="M1598.33 354.29L1409.05 354.5" stroke="#132e65" stroke-width="1.5"></path><path d="M1598.33 354.29L1431.56 213.82" stroke="#132e65" stroke-width="1.5"></path><path d="M1598.33 354.29L1401.83 512.34" stroke="#132e65" stroke-width="1.5"></path><path d="M1593.43 512.47L1593.43 512.47" stroke="#132e65" stroke-width="1.5"></path><path d="M1593.43 512.47L1561.44 677.38" stroke="#132e65" stroke-width="1.5"></path><path d="M1561.44 677.38L1561.44 677.38" stroke="#132e65" stroke-width="1.5"></path><path d="M1561.44 677.38L1401.83 512.34" stroke="#132e65" stroke-width="1.5"></path><path d="M1561.44 677.38L1272.1 693.29" stroke="#132e65" stroke-width="1.5"></path><path d="M1561.44 677.38L1309.14 525.23" stroke="#132e65" stroke-width="1.5"></path><path d="M1561.44 677.38L1598.33 354.29" stroke="#132e65" stroke-width="1.5"></path><circle r="5" cx="-112.36" cy="387.85" fill="#132e65"></circle><circle r="5" cx="-89.17" cy="535.6" fill="#132e65"></circle><circle r="5" cx="-90.16" cy="644.53" fill="#132e65"></circle><circle r="5" cx="46.86" cy="383.48" fill="#132e65"></circle><circle r="5" cx="53.81" cy="496.43" fill="#132e65"></circle><circle r="5" cx="98.2" cy="659.59" fill="#132e65"></circle><circle r="5" cx="212.19" cy="353.46" fill="#132e65"></circle><circle r="5" cx="253.56" cy="521.95" fill="#132e65"></circle><circle r="5" cx="225.75" cy="641.07" fill="#132e65"></circle><circle r="5" cx="405.6" cy="368.5" fill="#132e65"></circle><circle r="5" cx="372.17" cy="549.64" fill="#132e65"></circle><circle r="5" cx="377.09" cy="661.99" fill="#132e65"></circle><circle r="5" cx="548.28" cy="383.65" fill="#132e65"></circle><circle r="5" cx="504.3" cy="538.33" fill="#132e65"></circle><circle r="5" cx="502.5" cy="709.55" fill="#132e65"></circle><circle r="5" cx="685.64" cy="232.99" fill="#132e65"></circle><circle r="5" cx="698.66" cy="391.85" fill="#132e65"></circle><circle r="5" cx="675.12" cy="544.61" fill="#132e65"></circle><circle r="5" cx="832.31" cy="218.19" fill="#132e65"></circle><circle r="5" cx="806.71" cy="408.19" fill="#132e65"></circle><circle r="5" cx="836.21" cy="535.86" fill="#132e65"></circle><circle r="5" cx="939.48" cy="-54.87" fill="#132e65"></circle><circle r="5" cx="980.58" cy="93.2" fill="#132e65"></circle><circle r="5" cx="941.29" cy="209.53" fill="#132e65"></circle><circle r="5" cx="991.28" cy="491.58" fill="#132e65"></circle><circle r="5" cx="988.57" cy="693.02" fill="#132e65"></circle><circle r="5" cx="1151.42" cy="-110.48" fill="#132e65"></circle><circle r="5" cx="1113.73" cy="80.14" fill="#132e65"></circle><circle r="5" cx="1138.59" cy="216.07" fill="#132e65"></circle><circle r="5" cx="1154.3" cy="378.78" fill="#132e65"></circle><circle r="5" cx="1146.95" cy="535.43" fill="#132e65"></circle><circle r="5" cx="1129.51" cy="709.45" fill="#132e65"></circle><circle r="5" cx="1258.36" cy="-104.36" fill="#132e65"></circle><circle r="5" cx="1246.85" cy="41.1" fill="#132e65"></circle><circle r="5" cx="1311.89" cy="241.61" fill="#132e65"></circle><circle r="5" cx="1257.19" cy="407.99" fill="#132e65"></circle><circle r="5" cx="1309.14" cy="525.23" fill="#132e65"></circle><circle r="5" cx="1272.1" cy="693.29" fill="#132e65"></circle><circle r="5" cx="1426.53" cy="-95.96" fill="#132e65"></circle><circle r="5" cx="1425.97" cy="40.33" fill="#132e65"></circle><circle r="5" cx="1431.56" cy="213.82" fill="#132e65"></circle><circle r="5" cx="1409.05" cy="354.5" fill="#132e65"></circle><circle r="5" cx="1401.83" cy="512.34" fill="#132e65"></circle><circle r="5" cx="1426.59" cy="675.39" fill="#132e65"></circle><circle r="5" cx="1609.65" cy="-110.99" fill="#132e65"></circle><circle r="5" cx="1553.33" cy="85.91" fill="#132e65"></circle><circle r="5" cx="1598.33" cy="354.29" fill="#132e65"></circle><circle r="5" cx="1593.43" cy="512.47" fill="#132e65"></circle><circle r="5" cx="1561.44" cy="677.38" fill="#132e65"></circle><path d="M218.19 555.95L218.19 555.95" stroke="hsl(228.5, 77.2%, 51.5%)" stroke-width="1.5"></path><path d="M218.19 555.95L224.2 655.68" stroke="hsl(228.5, 77.2%, 51.5%)" stroke-width="1.5"></path><path d="M218.19 555.95L342.77 552.46" stroke="hsl(228.5, 77.2%, 51.5%)" stroke-width="1.5"></path><path d="M218.19 555.95L93.04 552.94" stroke="hsl(228.5, 77.2%, 51.5%)" stroke-width="1.5"></path><path d="M218.19 555.95L94.43 684.94" stroke="hsl(228.5, 77.2%, 51.5%)" stroke-width="1.5"></path><path d="M218.19 555.95L389.61 697.52" stroke="hsl(228.5, 77.2%, 51.5%)" stroke-width="1.5"></path><path d="M1000.16 383.66L1000.16 383.66" stroke="hsl(228.5, 77.2%, 51.5%)" stroke-width="1.5"></path><path d="M1000.16 383.66L1103.03 338.76" stroke="hsl(228.5, 77.2%, 51.5%)" stroke-width="1.5"></path><path d="M1000.16 383.66L957.99 492.44" stroke="hsl(228.5, 77.2%, 51.5%)" stroke-width="1.5"></path><path d="M1000.16 383.66L981.21 241.09" stroke="hsl(228.5, 77.2%, 51.5%)" stroke-width="1.5"></path><path d="M1125.29 533.6L1125.29 533.6" stroke="hsl(228.5, 77.2%, 51.5%)" stroke-width="1.5"></path><path d="M1125.29 533.6L1120.8 696.33" stroke="hsl(228.5, 77.2%, 51.5%)" stroke-width="1.5"></path><path d="M1125.29 533.6L957.99 492.44" stroke="hsl(228.5, 77.2%, 51.5%)" stroke-width="1.5"></path><path d="M1125.29 533.6L1300.6 519.52" stroke="hsl(228.5, 77.2%, 51.5%)" stroke-width="1.5"></path><path d="M1125.29 533.6L1000.16 383.66" stroke="hsl(228.5, 77.2%, 51.5%)" stroke-width="1.5"></path><path d="M1263.34 256.73L1263.34 256.73" stroke="hsl(228.5, 77.2%, 51.5%)" stroke-width="1.5"></path><path d="M1263.34 256.73L1153.85 224.64" stroke="hsl(228.5, 77.2%, 51.5%)" stroke-width="1.5"></path><path d="M1263.34 256.73L1265.32 396.14" stroke="hsl(228.5, 77.2%, 51.5%)" stroke-width="1.5"></path><path d="M1263.34 256.73L1403.92 199.71" stroke="hsl(228.5, 77.2%, 51.5%)" stroke-width="1.5"></path><path d="M1263.34 256.73L1103.03 338.76" stroke="hsl(228.5, 77.2%, 51.5%)" stroke-width="1.5"></path><path d="M1263.34 256.73L1303.77 57.37" stroke="hsl(228.5, 77.2%, 51.5%)" stroke-width="1.5"></path><path d="M1300.6 519.52L1300.6 519.52" stroke="hsl(228.5, 77.2%, 51.5%)" stroke-width="1.5"></path><path d="M1300.6 519.52L1265.32 396.14" stroke="hsl(228.5, 77.2%, 51.5%)" stroke-width="1.5"></path><path d="M1300.6 519.52L1452.91 514.33" stroke="hsl(228.5, 77.2%, 51.5%)" stroke-width="1.5"></path><path d="M-76 525.71L-76 525.71" stroke="hsl(228.5, 77.2%, 51.5%)" stroke-width="1.5"></path><path d="M-76 525.71L-75.71 696.71" stroke="hsl(228.5, 77.2%, 51.5%)" stroke-width="1.5"></path><path d="M-76 525.71L93.04 552.94" stroke="hsl(228.5, 77.2%, 51.5%)" stroke-width="1.5"></path><path d="M-75.71 696.71L-75.71 696.71" stroke="hsl(228.5, 77.2%, 51.5%)" stroke-width="1.5"></path><path d="M-75.71 696.71L94.43 684.94" stroke="hsl(228.5, 77.2%, 51.5%)" stroke-width="1.5"></path><path d="M93.04 552.94L93.04 552.94" stroke="hsl(228.5, 77.2%, 51.5%)" stroke-width="1.5"></path><path d="M93.04 552.94L94.43 684.94" stroke="hsl(228.5, 77.2%, 51.5%)" stroke-width="1.5"></path><path d="M93.04 552.94L224.2 655.68" stroke="hsl(228.5, 77.2%, 51.5%)" stroke-width="1.5"></path><path d="M93.04 552.94L-75.71 696.71" stroke="hsl(228.5, 77.2%, 51.5%)" stroke-width="1.5"></path><path d="M94.43 684.94L94.43 684.94" stroke="hsl(228.5, 77.2%, 51.5%)" stroke-width="1.5"></path><path d="M94.43 684.94L224.2 655.68" stroke="hsl(228.5, 77.2%, 51.5%)" stroke-width="1.5"></path><path d="M224.2 655.68L224.2 655.68" stroke="hsl(228.5, 77.2%, 51.5%)" stroke-width="1.5"></path><path d="M224.2 655.68L342.77 552.46" stroke="hsl(228.5, 77.2%, 51.5%)" stroke-width="1.5"></path><path d="M224.2 655.68L389.61 697.52" stroke="hsl(228.5, 77.2%, 51.5%)" stroke-width="1.5"></path><path d="M224.2 655.68L-75.71 696.71" stroke="hsl(228.5, 77.2%, 51.5%)" stroke-width="1.5"></path><path d="M342.77 552.46L342.77 552.46" stroke="hsl(228.5, 77.2%, 51.5%)" stroke-width="1.5"></path><path d="M342.77 552.46L389.61 697.52" stroke="hsl(228.5, 77.2%, 51.5%)" stroke-width="1.5"></path><path d="M342.77 552.46L527.01 541.03" stroke="hsl(228.5, 77.2%, 51.5%)" stroke-width="1.5"></path><path d="M342.77 552.46L543.86 697.9" stroke="hsl(228.5, 77.2%, 51.5%)" stroke-width="1.5"></path><path d="M389.61 697.52L389.61 697.52" stroke="hsl(228.5, 77.2%, 51.5%)" stroke-width="1.5"></path><path d="M389.61 697.52L543.86 697.9" stroke="hsl(228.5, 77.2%, 51.5%)" stroke-width="1.5"></path><path d="M389.61 697.52L527.01 541.03" stroke="hsl(228.5, 77.2%, 51.5%)" stroke-width="1.5"></path><path d="M389.61 697.52L639.15 638.11" stroke="hsl(228.5, 77.2%, 51.5%)" stroke-width="1.5"></path><path d="M527.01 541.03L527.01 541.03" stroke="hsl(228.5, 77.2%, 51.5%)" stroke-width="1.5"></path><path d="M527.01 541.03L639.15 638.11" stroke="hsl(228.5, 77.2%, 51.5%)" stroke-width="1.5"></path><path d="M527.01 541.03L681.07 514.12" stroke="hsl(228.5, 77.2%, 51.5%)" stroke-width="1.5"></path><path d="M527.01 541.03L543.86 697.9" stroke="hsl(228.5, 77.2%, 51.5%)" stroke-width="1.5"></path><path d="M527.01 541.03L710.38 367.64" stroke="hsl(228.5, 77.2%, 51.5%)" stroke-width="1.5"></path><path d="M543.86 697.9L543.86 697.9" stroke="hsl(228.5, 77.2%, 51.5%)" stroke-width="1.5"></path><path d="M543.86 697.9L639.15 638.11" stroke="hsl(228.5, 77.2%, 51.5%)" stroke-width="1.5"></path><path d="M543.86 697.9L681.07 514.12" stroke="hsl(228.5, 77.2%, 51.5%)" stroke-width="1.5"></path><path d="M710.38 367.64L710.38 367.64" stroke="hsl(228.5, 77.2%, 51.5%)" stroke-width="1.5"></path><path d="M710.38 367.64L788.35 407.3" stroke="hsl(228.5, 77.2%, 51.5%)" stroke-width="1.5"></path><path d="M710.38 367.64L681.07 514.12" stroke="hsl(228.5, 77.2%, 51.5%)" stroke-width="1.5"></path><path d="M710.38 367.64L805.29 510.68" stroke="hsl(228.5, 77.2%, 51.5%)" stroke-width="1.5"></path><path d="M681.07 514.12L681.07 514.12" stroke="hsl(228.5, 77.2%, 51.5%)" stroke-width="1.5"></path><path d="M681.07 514.12L805.29 510.68" stroke="hsl(228.5, 77.2%, 51.5%)" stroke-width="1.5"></path><path d="M681.07 514.12L639.15 638.11" stroke="hsl(228.5, 77.2%, 51.5%)" stroke-width="1.5"></path><path d="M681.07 514.12L788.35 407.3" stroke="hsl(228.5, 77.2%, 51.5%)" stroke-width="1.5"></path><path d="M639.15 638.11L639.15 638.11" stroke="hsl(228.5, 77.2%, 51.5%)" stroke-width="1.5"></path><path d="M639.15 638.11L804.48 662.5" stroke="hsl(228.5, 77.2%, 51.5%)" stroke-width="1.5"></path><path d="M788.35 407.3L788.35 407.3" stroke="hsl(228.5, 77.2%, 51.5%)" stroke-width="1.5"></path><path d="M788.35 407.3L805.29 510.68" stroke="hsl(228.5, 77.2%, 51.5%)" stroke-width="1.5"></path><path d="M788.35 407.3L957.99 492.44" stroke="hsl(228.5, 77.2%, 51.5%)" stroke-width="1.5"></path><path d="M805.29 510.68L805.29 510.68" stroke="hsl(228.5, 77.2%, 51.5%)" stroke-width="1.5"></path><path d="M805.29 510.68L804.48 662.5" stroke="hsl(228.5, 77.2%, 51.5%)" stroke-width="1.5"></path><path d="M805.29 510.68L957.99 492.44" stroke="hsl(228.5, 77.2%, 51.5%)" stroke-width="1.5"></path><path d="M804.48 662.5L804.48 662.5" stroke="hsl(228.5, 77.2%, 51.5%)" stroke-width="1.5"></path><path d="M804.48 662.5L681.07 514.12" stroke="hsl(228.5, 77.2%, 51.5%)" stroke-width="1.5"></path><path d="M804.48 662.5L1012.34 706.44" stroke="hsl(228.5, 77.2%, 51.5%)" stroke-width="1.5"></path><path d="M804.48 662.5L957.99 492.44" stroke="hsl(228.5, 77.2%, 51.5%)" stroke-width="1.5"></path><path d="M804.48 662.5L788.35 407.3" stroke="hsl(228.5, 77.2%, 51.5%)" stroke-width="1.5"></path><path d="M981.21 241.09L981.21 241.09" stroke="hsl(228.5, 77.2%, 51.5%)" stroke-width="1.5"></path><path d="M981.21 241.09L1103.03 338.76" stroke="hsl(228.5, 77.2%, 51.5%)" stroke-width="1.5"></path><path d="M981.21 241.09L1153.85 224.64" stroke="hsl(228.5, 77.2%, 51.5%)" stroke-width="1.5"></path><path d="M957.99 492.44L957.99 492.44" stroke="hsl(228.5, 77.2%, 51.5%)" stroke-width="1.5"></path><path d="M1012.34 706.44L1012.34 706.44" stroke="hsl(228.5, 77.2%, 51.5%)" stroke-width="1.5"></path><path d="M1012.34 706.44L1120.8 696.33" stroke="hsl(228.5, 77.2%, 51.5%)" stroke-width="1.5"></path><path d="M1012.34 706.44L1125.29 533.6" stroke="hsl(228.5, 77.2%, 51.5%)" stroke-width="1.5"></path><path d="M1153.85 224.64L1153.85 224.64" stroke="hsl(228.5, 77.2%, 51.5%)" stroke-width="1.5"></path><path d="M1153.85 224.64L1103.03 338.76" stroke="hsl(228.5, 77.2%, 51.5%)" stroke-width="1.5"></path><path d="M1103.03 338.76L1103.03 338.76" stroke="hsl(228.5, 77.2%, 51.5%)" stroke-width="1.5"></path><path d="M1103.03 338.76L1265.32 396.14" stroke="hsl(228.5, 77.2%, 51.5%)" stroke-width="1.5"></path><path d="M1120.8 696.33L1120.8 696.33" stroke="hsl(228.5, 77.2%, 51.5%)" stroke-width="1.5"></path><path d="M1120.8 696.33L1285.89 706.16" stroke="hsl(228.5, 77.2%, 51.5%)" stroke-width="1.5"></path><path d="M1120.8 696.33L1300.6 519.52" stroke="hsl(228.5, 77.2%, 51.5%)" stroke-width="1.5"></path><path d="M1120.8 696.33L957.99 492.44" stroke="hsl(228.5, 77.2%, 51.5%)" stroke-width="1.5"></path><path d="M1120.8 696.33L1393.7 663.62" stroke="hsl(228.5, 77.2%, 51.5%)" stroke-width="1.5"></path><path d="M1303.58 -76.73L1303.58 -76.73" stroke="hsl(228.5, 77.2%, 51.5%)" stroke-width="1.5"></path><path d="M1303.58 -76.73L1400.12 -50.23" stroke="hsl(228.5, 77.2%, 51.5%)" stroke-width="1.5"></path><path d="M1303.58 -76.73L1303.77 57.37" stroke="hsl(228.5, 77.2%, 51.5%)" stroke-width="1.5"></path><path d="M1303.58 -76.73L1458.89 57.11" stroke="hsl(228.5, 77.2%, 51.5%)" stroke-width="1.5"></path><path d="M1303.58 -76.73L1542.17 -59.01" stroke="hsl(228.5, 77.2%, 51.5%)" stroke-width="1.5"></path><path d="M1303.58 -76.73L1403.92 199.71" stroke="hsl(228.5, 77.2%, 51.5%)" stroke-width="1.5"></path><path d="M1303.77 57.37L1303.77 57.37" stroke="hsl(228.5, 77.2%, 51.5%)" stroke-width="1.5"></path><path d="M1265.32 396.14L1265.32 396.14" stroke="hsl(228.5, 77.2%, 51.5%)" stroke-width="1.5"></path><path d="M1265.32 396.14L1437.27 393.78" stroke="hsl(228.5, 77.2%, 51.5%)" stroke-width="1.5"></path><path d="M1265.32 396.14L1125.29 533.6" stroke="hsl(228.5, 77.2%, 51.5%)" stroke-width="1.5"></path><path d="M1265.32 396.14L1153.85 224.64" stroke="hsl(228.5, 77.2%, 51.5%)" stroke-width="1.5"></path><path d="M1285.89 706.16L1285.89 706.16" stroke="hsl(228.5, 77.2%, 51.5%)" stroke-width="1.5"></path><path d="M1285.89 706.16L1393.7 663.62" stroke="hsl(228.5, 77.2%, 51.5%)" stroke-width="1.5"></path><path d="M1285.89 706.16L1300.6 519.52" stroke="hsl(228.5, 77.2%, 51.5%)" stroke-width="1.5"></path><path d="M1285.89 706.16L1125.29 533.6" stroke="hsl(228.5, 77.2%, 51.5%)" stroke-width="1.5"></path><path d="M1400.12 -50.23L1400.12 -50.23" stroke="hsl(228.5, 77.2%, 51.5%)" stroke-width="1.5"></path><path d="M1400.12 -50.23L1458.89 57.11" stroke="hsl(228.5, 77.2%, 51.5%)" stroke-width="1.5"></path><path d="M1400.12 -50.23L1542.17 -59.01" stroke="hsl(228.5, 77.2%, 51.5%)" stroke-width="1.5"></path><path d="M1400.12 -50.23L1303.77 57.37" stroke="hsl(228.5, 77.2%, 51.5%)" stroke-width="1.5"></path><path d="M1400.12 -50.23L1608.33 78.29" stroke="hsl(228.5, 77.2%, 51.5%)" stroke-width="1.5"></path><path d="M1458.89 57.11L1458.89 57.11" stroke="hsl(228.5, 77.2%, 51.5%)" stroke-width="1.5"></path><path d="M1458.89 57.11L1542.17 -59.01" stroke="hsl(228.5, 77.2%, 51.5%)" stroke-width="1.5"></path><path d="M1458.89 57.11L1608.33 78.29" stroke="hsl(228.5, 77.2%, 51.5%)" stroke-width="1.5"></path><path d="M1458.89 57.11L1403.92 199.71" stroke="hsl(228.5, 77.2%, 51.5%)" stroke-width="1.5"></path><path d="M1403.92 199.71L1403.92 199.71" stroke="hsl(228.5, 77.2%, 51.5%)" stroke-width="1.5"></path><path d="M1403.92 199.71L1303.77 57.37" stroke="hsl(228.5, 77.2%, 51.5%)" stroke-width="1.5"></path><path d="M1403.92 199.71L1437.27 393.78" stroke="hsl(228.5, 77.2%, 51.5%)" stroke-width="1.5"></path><path d="M1403.92 199.71L1559.9 350.17" stroke="hsl(228.5, 77.2%, 51.5%)" stroke-width="1.5"></path><path d="M1403.92 199.71L1608.33 78.29" stroke="hsl(228.5, 77.2%, 51.5%)" stroke-width="1.5"></path><path d="M1437.27 393.78L1437.27 393.78" stroke="hsl(228.5, 77.2%, 51.5%)" stroke-width="1.5"></path><path d="M1437.27 393.78L1452.91 514.33" stroke="hsl(228.5, 77.2%, 51.5%)" stroke-width="1.5"></path><path d="M1437.27 393.78L1559.9 350.17" stroke="hsl(228.5, 77.2%, 51.5%)" stroke-width="1.5"></path><path d="M1437.27 393.78L1300.6 519.52" stroke="hsl(228.5, 77.2%, 51.5%)" stroke-width="1.5"></path><path d="M1437.27 393.78L1263.34 256.73" stroke="hsl(228.5, 77.2%, 51.5%)" stroke-width="1.5"></path><path d="M1452.91 514.33L1452.91 514.33" stroke="hsl(228.5, 77.2%, 51.5%)" stroke-width="1.5"></path><path d="M1393.7 663.62L1393.7 663.62" stroke="hsl(228.5, 77.2%, 51.5%)" stroke-width="1.5"></path><path d="M1393.7 663.62L1452.91 514.33" stroke="hsl(228.5, 77.2%, 51.5%)" stroke-width="1.5"></path><path d="M1393.7 663.62L1300.6 519.52" stroke="hsl(228.5, 77.2%, 51.5%)" stroke-width="1.5"></path><path d="M1542.17 -59.01L1542.17 -59.01" stroke="hsl(228.5, 77.2%, 51.5%)" stroke-width="1.5"></path><path d="M1542.17 -59.01L1608.33 78.29" stroke="hsl(228.5, 77.2%, 51.5%)" stroke-width="1.5"></path><path d="M1542.17 -59.01L1303.77 57.37" stroke="hsl(228.5, 77.2%, 51.5%)" stroke-width="1.5"></path><path d="M1608.33 78.29L1608.33 78.29" stroke="hsl(228.5, 77.2%, 51.5%)" stroke-width="1.5"></path><path d="M1559.9 350.17L1559.9 350.17" stroke="hsl(228.5, 77.2%, 51.5%)" stroke-width="1.5"></path><path d="M1559.9 350.17L1452.91 514.33" stroke="hsl(228.5, 77.2%, 51.5%)" stroke-width="1.5"></path><path d="M1559.9 350.17L1604.51 549.62" stroke="hsl(228.5, 77.2%, 51.5%)" stroke-width="1.5"></path><path d="M1559.9 350.17L1608.33 78.29" stroke="hsl(228.5, 77.2%, 51.5%)" stroke-width="1.5"></path><path d="M1559.9 350.17L1265.32 396.14" stroke="hsl(228.5, 77.2%, 51.5%)" stroke-width="1.5"></path><path d="M1604.51 549.62L1604.51 549.62" stroke="hsl(228.5, 77.2%, 51.5%)" stroke-width="1.5"></path><path d="M1604.51 549.62L1452.91 514.33" stroke="hsl(228.5, 77.2%, 51.5%)" stroke-width="1.5"></path><path d="M1604.51 549.62L1437.27 393.78" stroke="hsl(228.5, 77.2%, 51.5%)" stroke-width="1.5"></path><circle r="25" cx="218.19" cy="555.95" fill="url(#SvgjsRadialGradient1017)"></circle><circle r="25" cx="1000.16" cy="383.66" fill="url(#SvgjsRadialGradient1017)"></circle><circle r="25" cx="1125.29" cy="533.6" fill="url(#SvgjsRadialGradient1017)"></circle><circle r="25" cx="1263.34" cy="256.73" fill="url(#SvgjsRadialGradient1017)"></circle><circle r="25" cx="1300.6" cy="519.52" fill="url(#SvgjsRadialGradient1017)"></circle><circle r="5" cx="-76" cy="525.71" fill="#8b9ad9"></circle><circle r="5" cx="-75.71" cy="696.71" fill="#8b9ad9"></circle><circle r="5" cx="93.04" cy="552.94" fill="#8b9ad9"></circle><circle r="5" cx="94.43" cy="684.94" fill="#8b9ad9"></circle><circle r="5" cx="224.2" cy="655.68" fill="#8b9ad9"></circle><circle r="5" cx="342.77" cy="552.46" fill="#8b9ad9"></circle><circle r="5" cx="389.61" cy="697.52" fill="#8b9ad9"></circle><circle r="5" cx="527.01" cy="541.03" fill="#8b9ad9"></circle><circle r="5" cx="543.86" cy="697.9" fill="#8b9ad9"></circle><circle r="5" cx="710.38" cy="367.64" fill="#8b9ad9"></circle><circle r="5" cx="681.07" cy="514.12" fill="#8b9ad9"></circle><circle r="5" cx="639.15" cy="638.11" fill="#8b9ad9"></circle><circle r="5" cx="788.35" cy="407.3" fill="#8b9ad9"></circle><circle r="5" cx="805.29" cy="510.68" fill="#8b9ad9"></circle><circle r="5" cx="804.48" cy="662.5" fill="#8b9ad9"></circle><circle r="5" cx="981.21" cy="241.09" fill="#8b9ad9"></circle><circle r="5" cx="957.99" cy="492.44" fill="#8b9ad9"></circle><circle r="5" cx="1012.34" cy="706.44" fill="#8b9ad9"></circle><circle r="5" cx="1153.85" cy="224.64" fill="#8b9ad9"></circle><circle r="5" cx="1103.03" cy="338.76" fill="#8b9ad9"></circle><circle r="5" cx="1120.8" cy="696.33" fill="#8b9ad9"></circle><circle r="5" cx="1303.58" cy="-76.73" fill="#8b9ad9"></circle><circle r="5" cx="1303.77" cy="57.37" fill="#8b9ad9"></circle><circle r="5" cx="1265.32" cy="396.14" fill="#8b9ad9"></circle><circle r="5" cx="1285.89" cy="706.16" fill="#8b9ad9"></circle><circle r="5" cx="1400.12" cy="-50.23" fill="#8b9ad9"></circle><circle r="5" cx="1458.89" cy="57.11" fill="#8b9ad9"></circle><circle r="5" cx="1403.92" cy="199.71" fill="#8b9ad9"></circle><circle r="5" cx="1437.27" cy="393.78" fill="#8b9ad9"></circle><circle r="5" cx="1452.91" cy="514.33" fill="#8b9ad9"></circle><circle r="5" cx="1393.7" cy="663.62" fill="#8b9ad9"></circle><circle r="5" cx="1542.17" cy="-59.01" fill="#8b9ad9"></circle><circle r="5" cx="1608.33" cy="78.29" fill="#8b9ad9"></circle><circle r="5" cx="1559.9" cy="350.17" fill="#8b9ad9"></circle><circle r="5" cx="1604.51" cy="549.62" fill="#8b9ad9"></circle></g><defs><mask id="SvgjsMask1016"><rect width="1441" height="558" fill="#ffffff"></rect></mask><radialGradient id="SvgjsRadialGradient1017"><stop stop-color="#ffffff" offset="0.1"></stop><stop stop-color="#1735b3" offset="0.2"></stop><stop stop-color="rgba(23, 53, 179, 0)" offset="1"></stop></radialGradient></defs></svg>